<?xml version="1.0" standalone="no"?>
<!DOCTYPE svg PUBLIC "-//W3C//DTD SVG 20010904//EN"
 "http://www.w3.org/TR/2001/REC-SVG-20010904/DTD/svg10.dtd">
<svg version="1.0" xmlns="http://www.w3.org/2000/svg"
 width="64.000000pt" height="64.000000pt" viewBox="0 0 64.000000 64.000000"
 preserveAspectRatio="xMidYMid meet">

<g transform="translate(0.000000,64.000000) scale(0.100000,-0.100000)"
fill="#fff" stroke="none">
<path d="M336 630 c-57 -18 -85 -59 -101 -152 -6 -38 -6 -38 -55 -38 l-50 0 0
-60 0 -60 50 0 50 0 0 -160 0 -160 80 0 79 0 3 158 3 157 53 3 53 3 -3 57 -3
57 -52 3 c-45 3 -53 6 -53 23 0 41 19 58 70 65 l50 7 0 53 0 54 -72 -1 c-40 0
-86 -5 -102 -9z m152 -47 c-3 -24 -9 -29 -40 -33 -58 -8 -78 -31 -78 -90 l0
-50 50 0 50 0 0 -35 0 -35 -50 0 -50 0 0 -155 0 -155 -55 0 -55 0 0 154 0 155
-52 3 c-52 3 -53 4 -56 36 l-3 32 55 0 56 0 0 45 c0 58 20 106 55 133 23 18
41 22 102 22 l74 0 -3 -27z"/>
</g>
</svg>
